ply
format ascii 1.0
element vertex 126
property float x 
property float y
property float z
end_header
2463.000000 2397.000000 0.000000 
2530.000000 2398.000000 0.000000 
2527.000000 2396.000000 0.000000 
2440.000000 2407.000000 0.000000 
2440.000000 2404.000000 0.000000 
2473.000000 2406.000000 0.000000 
2515.000000 2408.000000 0.000000 
2473.000000 2409.000000 0.000000 
2436.000000 2404.000000 0.000000 
2518.000000 2405.000000 0.000000 
2509.000000 2405.000000 0.000000 
2467.000000 2410.000000 0.000000 
2467.000000 2406.000000 0.000000 
2437.000000 2401.000000 0.000000 
2518.000000 2411.000000 0.000000 
2506.000000 2398.000000 0.000000 
2467.000000 2401.000000 0.000000 
2527.000000 2412.000000 0.000000 
2509.000000 2395.000000 0.000000 
2502.000000 2400.000000 0.000000 
2527.000000 2405.000000 0.000000 
2467.000000 2413.000000 0.000000 
2489.000000 2400.000000 0.000000 
2450.000000 2399.000000 0.000000 
2439.000000 2397.000000 0.000000 
2441.000000 2400.000000 0.000000 
2515.000000 2402.000000 0.000000 
2506.000000 2401.000000 0.000000 
2453.000000 2397.000000 0.000000 
2442.000000 2395.000000 0.000000 
2447.000000 2394.000000 0.000000 
2501.000000 2413.000000 0.000000 
2467.000000 2398.000000 0.000000 
2450.000000 2395.000000 0.000000 
2473.000000 2400.000000 0.000000 
2444.000000 2398.000000 0.000000 
2513.000000 2405.000000 0.000000 
2485.000000 2404.000000 0.000000 
2509.000000 2412.000000 0.000000 
2531.000000 2409.000000 0.000000 
2490.000000 2397.000000 0.000000 
2477.000000 2395.000000 0.000000 
2490.000000 2413.000000 0.000000 
2486.000000 2412.000000 0.000000 
2512.000000 2395.000000 0.000000 
2506.000000 2413.000000 0.000000 
2514.000000 2411.000000 0.000000 
2463.000000 2406.000000 0.000000 
2483.000000 2415.000000 0.000000 
2531.000000 2401.000000 0.000000 
2524.000000 2398.000000 0.000000 
2473.000000 2403.000000 0.000000 
2516.000000 2414.000000 0.000000 
2511.000000 2416.000000 0.000000 
2464.000000 2411.000000 0.000000 
2531.000000 2412.000000 0.000000 
2496.000000 2394.000000 0.000000 
2447.000000 2398.000000 0.000000 
2480.000000 2416.000000 0.000000 
2484.000000 2396.000000 0.000000 
2527.000000 2408.000000 0.000000 
2493.000000 2395.000000 0.000000 
2502.000000 2410.000000 0.000000 
2477.000000 2399.000000 0.000000 
2531.000000 2406.000000 0.000000 
2502.000000 2403.000000 0.000000 
2475.000000 2414.000000 0.000000 
2481.000000 2398.000000 0.000000 
2514.000000 2398.000000 0.000000 
2515.000000 2394.000000 0.000000 
2481.000000 2402.000000 0.000000 
2497.000000 2416.000000 0.000000 
2460.000000 2399.000000 0.000000 
2489.000000 2403.000000 0.000000 
2480.000000 2394.000000 0.000000 
2474.000000 2397.000000 0.000000 
2499.000000 2395.000000 0.000000 
2502.000000 2407.000000 0.000000 
2511.000000 2398.000000 0.000000 
2506.000000 2404.000000 0.000000 
2493.000000 2416.000000 0.000000 
2461.000000 2402.000000 0.000000 
2486.000000 2407.000000 0.000000 
2512.000000 2401.000000 0.000000 
2527.000000 2401.000000 0.000000 
2478.000000 2402.000000 0.000000 
2524.000000 2402.000000 0.000000 
2489.000000 2406.000000 0.000000 
2489.000000 2410.000000 0.000000 
2517.000000 2398.000000 0.000000 
2485.000000 2400.000000 0.000000 
2440.000000 2402.000000 0.000000 
2467.000000 2408.000000 0.000000 
2467.000000 2404.000000 0.000000 
2473.000000 2411.000000 0.000000 
2519.000000 2409.000000 0.000000 
2507.000000 2396.000000 0.000000 
2517.000000 2403.000000 0.000000 
2438.000000 2399.000000 0.000000 
2445.000000 2394.000000 0.000000 
2527.000000 2410.000000 0.000000 
2499.000000 2415.000000 0.000000 
2508.000000 2415.000000 0.000000 
2485.000000 2414.000000 0.000000 
2527.000000 2403.000000 0.000000 
2513.000000 2416.000000 0.000000 
2463.000000 2404.000000 0.000000 
2464.000000 2409.000000 0.000000 
2501.000000 2398.000000 0.000000 
2478.000000 2416.000000 0.000000 
2515.000000 2406.000000 0.000000 
2464.000000 2413.000000 0.000000 
2464.000000 2395.000000 0.000000 
2531.000000 2403.000000 0.000000 
2530.000000 2396.000000 0.000000 
2527.000000 2414.000000 0.000000 
2454.000000 2399.000000 0.000000 
2508.000000 2410.000000 0.000000 
2512.000000 2413.000000 0.000000 
2502.000000 2405.000000 0.000000 
2482.000000 2395.000000 0.000000 
2483.000000 2399.000000 0.000000 
2486.000000 2398.000000 0.000000 
2483.000000 2403.000000 0.000000 
2486.000000 2410.000000 0.000000 
2491.000000 2415.000000 0.000000 
